{"title":"MacGruber 2010 BRRip XviD AC3-ViSiON","uid":5794843,"size":745341853,"categoryP":"video","categoryS":"movies","magnet":"?xt=urn:btih:58af106d0f8d8058375607583f6d84f0867d7b3b&amp;dn=MacGruber+2010+BRRip+XviD+AC3-ViSiON&amp;tr=udp%3A%2F%2Ftracker.openbittorrent.com%3A80&amp;tr=udp%3A%2F%2Fopen.demonii.com%3A1337&amp;tr=udp%3A%2F%2Ftracker.coppersurfer.tk%3A6969&amp;tr=udp%3A%2F%2Fexodus.desync.com%3A6969","seeders":0,"leechers":0,"uploader":"hiest","files":-1,"time":1282956902,"description":"=====\nPlot\n=====\n\nEx-special operative MacGruber is called back into action to take down his archenemy, Dieter Von Cunth, who's in possession of a nuclear warhead and bent on destroying Washington, D.C. \n\n\n========== \nMovie Info\n==========\n\n\nimdb.com/title/tt1470023/\nDirector:Jorma Taccone\nRelease Date:21 May 2010 (USA)\nGenre:Action | Comedy \n\n \n\n\n\n=====\nVideo\n=====\n\n\nID : 0\nFormat : MPEG-4 Visual\nFormat profile : Advanced Simple@L5\nFormat settings, BVOP : Yes\nFormat settings, QPel : No\nFormat settings, GMC : No warppoints\nFormat settings, Matrix : Custom\nMuxing mode : Packed bitstream\nCodec ID : XVID\nCodec ID/Hint : XviD\nDuration : 1h 34mn\nBit rate : 835 Kbps\nWidth : 640 pixels\nHeight : 272 pixels\nDisplay aspect ratio : 2.35:1\nFrame rate : 23.976 fps\nResolution : 8 bits\nColorimetry : 4:2:0\nScan type : Progressive\nBits/(Pixel*Frame) : 0.200\nStream size : 567 MiB (81%)\nWriting library : XviD 1.2.1 (UTC 2008-12-04)\n\n\n\n\n\n=====\nAudio\n=====\n\n\nID : 1\nFormat : AC-3\nFormat/Info : Audio Coding 3\nCodec ID : 2000\nDuration : 1h 34mn\nBit rate mode : Constant\nBit rate : 192 Kbps\nChannel(s) : 6 channels\nChannel positions : Front: L C R, Surround: L R, LFE\nSampling rate : 48.0 KHz\nStream size : 130 MiB (19%)\nAlignment : Split accross interleaves\nInterleave, duration : 42 ms (1.00 video frame)\nInterleave, preload duration : 500 ms\n\n\n\n\n\n===================================\n &lt;a href=&quot;\nhttp://thepiratebay.se/user/hiest&quot; rel=&quot;nofollow&quot; target=&quot;_NEW&quot;&gt;\nhttp://thepiratebay.se/user/hiest&lt;/a&gt;\n\n===================================\n\n\n\n\n\n============\nScreenshots\n============\n &lt;a href=&quot;\nhttp://postimg.com/image/21000/20562.jpg&quot; rel=&quot;nofollow&quot; target=&quot;_NEW&quot;&gt;\nhttp://postimg.com/image/21000/20562.jpg&lt;/a&gt;","torrent":{"xt":"urn:btih:58af106d0f8d8058375607583f6d84f0867d7b3b","amp;dn":"MacGruber+2010+BRRip+XviD+AC3-ViSiON","amp;tr":["udp%3A%2F%2Ftracker.openbittorrent.com%3A80","udp%3A%2F%2Fopen.demonii.com%3A1337","udp%3A%2F%2Ftracker.coppersurfer.tk%3A6969","udp%3A%2F%2Fexodus.desync.com%3A6969"],"infoHash":"58af106d0f8d8058375607583f6d84f0867d7b3b","infoHashBuffer":{"type":"Buffer","data":[88,175,16,109,15,141,128,88,55,86,7,88,63,109,132,240,134,125,123,59]},"announce":[],"urlList":[]}}